<svg width="24" height="24" viewBox="0 0 24 24" fill="none" xmlns="http://www.w3.org/2000/svg">
<path d="M18.3998 8.32614L17.5599 6.88543C17.5093 6.79857 17.4182 6.74556 17.3198 6.74556H6.67993C6.5815 6.74556 6.49036 6.79857 6.43983 6.88543L5.59985 8.32614C5.54792 8.41528 5.54669 8.52612 5.59632 8.61644C5.64595 8.70676 5.73897 8.76264 5.83995 8.76264H18.1597C18.2607 8.76264 18.3537 8.70676 18.4034 8.61644C18.4531 8.52612 18.4518 8.41519 18.3998 8.32614ZM6.33442 8.18643L6.83858 7.32203H17.1613L17.6653 8.18643H6.33442Z" fill="black"/>
<path d="M18.4396 8.45985C18.4319 8.30672 18.309 8.18651 18.1599 8.18651H5.84011C5.69098 8.18651 5.5681 8.30664 5.56039 8.45985L5.00037 19.6971C4.99643 19.776 5.02416 19.8531 5.07698 19.9104C5.12989 19.9675 5.20323 20 5.28001 20H18.7198C18.7965 20 18.8699 19.9676 18.923 19.9104C18.9758 19.8531 19.0035 19.7761 18.9996 19.6971L18.4396 8.45985ZM5.57466 19.4237L6.10597 8.76273H17.8937L18.425 19.4237H5.57466Z" fill="black"/>
<path d="M11.9999 3C10.6875 3 9.61989 4.09866 9.61989 5.44912V7.03383C9.61989 7.19287 9.74531 7.32194 9.89985 7.32194H14.0998C14.2543 7.32194 14.3797 7.19287 14.3797 7.03383V5.44912C14.3798 4.09866 13.3122 3 11.9999 3ZM13.8198 6.74573H10.1799V5.44912C10.1799 4.41648 10.9963 3.57621 11.9999 3.57621C13.0034 3.57621 13.8199 4.41639 13.8199 5.44912L13.8198 6.74573Z" fill="black"/>
<path fill-rule="evenodd" clip-rule="evenodd" d="M12 23C18.0751 23 23 18.0751 23 12C23 5.92487 18.0751 1 12 1C5.92487 1 1 5.92487 1 12C1 18.0751 5.92487 23 12 23ZM12 24C18.6274 24 24 18.6274 24 12C24 5.37258 18.6274 0 12 0C5.37258 0 0 5.37258 0 12C0 18.6274 5.37258 24 12 24Z" fill="black"/>
</svg>
