<svg width="24" height="24" viewBox="0 0 24 24" fill="none" xmlns="http://www.w3.org/2000/svg">
<path d="M21.6226 12.4384L23.111 11.9667C23.7032 11.7791 24.0573 11.2364 23.9924 10.6159C23.9276 9.9957 23.4687 9.53881 22.8508 9.47894L21.2973 9.32859C21.0943 9.30901 20.9354 9.18073 20.8724 8.98575C20.8094 8.79078 20.8629 8.59318 21.0158 8.45739L22.1845 7.41808C22.6495 7.00468 22.7533 6.36409 22.443 5.82378C22.1326 5.28358 21.5285 5.05321 20.9398 5.25148L19.4599 5.74911C19.2668 5.81433 19.0692 5.76209 18.9327 5.60968C18.7962 5.45727 18.7651 5.25479 18.8498 5.06835L19.497 3.64136C19.7544 3.07373 19.5903 2.44589 19.088 2.07938C18.5855 1.71265 17.9405 1.74953 17.4829 2.1709L16.3323 3.23035C16.1821 3.3691 15.9808 3.40165 15.7945 3.31856C15.6084 3.23524 15.498 3.06292 15.4999 2.85792L15.5135 1.28969C15.5187 0.665942 15.1144 0.159663 14.5073 0.0301332C13.8999 -0.0996237 13.3257 0.197565 13.0782 0.769634L12.4558 2.20789C12.3746 2.39569 12.2041 2.50804 12.0001 2.50804C11.7961 2.50804 11.6259 2.39592 11.5444 2.20789L10.9219 0.769634C10.6743 0.197565 10.1006 -0.0995099 9.49283 0.0301332C8.88557 0.15989 8.48142 0.66617 8.48663 1.28991L8.50022 2.85815C8.50215 3.06315 8.39193 3.23536 8.2056 3.31879C8.01927 3.40177 7.81821 3.36933 7.66778 3.23058L6.51693 2.17112C6.05954 1.74975 5.41468 1.71288 4.91198 2.07961C4.40995 2.44612 4.2456 3.07396 4.50295 3.64147L5.15019 5.06846C5.23469 5.25513 5.20377 5.4575 5.06727 5.6098C4.93044 5.76232 4.73301 5.81399 4.5401 5.74923L3.0602 5.2516C2.47141 5.05309 1.86722 5.2837 1.55696 5.8239C1.24671 6.36409 1.35047 7.0048 1.81545 7.4182L2.98431 8.45751C3.13723 8.5933 3.1908 8.79089 3.12771 8.98587C3.06473 9.18096 2.90581 9.30912 2.70283 9.3287L1.14918 9.47894C0.531281 9.53881 0.0724148 9.9957 0.00762302 10.6159C-0.0572821 11.2364 0.297034 11.7792 0.888995 11.9667L2.37739 12.4384C2.57211 12.5002 2.70101 12.6587 2.72231 12.8626C2.7436 13.0664 2.65038 13.2483 2.47288 13.3492L1.11429 14.1216C0.574212 14.4289 0.340078 15.0339 0.531848 15.6271C0.723844 16.2204 1.26608 16.5706 1.88375 16.501L3.43434 16.3234C3.6363 16.3003 3.81901 16.3921 3.92107 16.5699C4.02313 16.7473 4.01158 16.9517 3.89015 17.1166L2.96188 18.3773C2.5925 18.8785 2.62354 19.5267 3.03879 19.9904C3.45382 20.4539 4.09279 20.553 4.62744 20.2365L5.97221 19.4404C6.14789 19.3363 6.35156 19.3461 6.51659 19.4666C6.68152 19.587 6.75401 19.7786 6.70972 19.9788L6.37183 21.5099C6.23749 22.1189 6.52826 22.6986 7.09542 22.9523C7.66246 23.206 8.28546 23.0352 8.646 22.5273L9.55229 21.2506C9.67078 21.0838 9.8604 21.0098 10.0603 21.0524C10.2598 21.095 10.4033 21.2404 10.4439 21.4413L10.7549 22.9782C10.8786 23.5893 11.3789 24 11.9997 24C12.6204 24 13.1207 23.5893 13.2452 22.9782L13.5562 21.4415C13.5968 21.2406 13.7403 21.0954 13.9398 21.0526C14.1398 21.01 14.3293 21.084 14.4478 21.2509L15.3541 22.5275C15.7144 23.0357 16.3375 23.2064 16.9047 22.9525C17.4717 22.6988 17.7625 22.1191 17.628 21.5101L17.2903 19.979C17.246 19.7786 17.3183 19.5872 17.4834 19.4668C17.6484 19.3462 17.8521 19.3365 18.0278 19.4406L19.3726 20.2367C19.9077 20.5531 20.5462 20.4541 20.9612 19.9906C21.3765 19.5269 21.4074 18.8787 21.0381 18.3775L20.1098 17.1166C19.9884 16.9519 19.9769 16.7475 20.0789 16.5699C20.181 16.3924 20.362 16.3003 20.5657 16.3234L22.1162 16.501C22.7318 16.5711 23.2762 16.2206 23.4681 15.6271C23.6599 15.0339 23.4258 14.4289 22.8855 14.1216L21.527 13.3492C21.3495 13.2484 21.2564 13.0664 21.2776 12.8626C21.299 12.6587 21.4279 12.5002 21.6226 12.4384ZM21.1462 14.0259L22.5044 14.7983C22.7651 14.9463 22.793 15.1996 22.7323 15.3873C22.6718 15.5748 22.4992 15.7625 22.2036 15.729L20.653 15.5515C20.1434 15.4934 19.666 15.7345 19.409 16.1816C19.1524 16.6286 19.1825 17.164 19.4881 17.5789L20.4164 18.8395C20.5944 19.0812 20.5176 19.324 20.3862 19.4707C20.2547 19.6172 20.0224 19.7195 19.7645 19.5669L18.4197 18.7708C17.9772 18.5089 17.4439 18.5346 17.0284 18.8381C16.6128 19.1415 16.4237 19.643 16.5351 20.147L16.8729 21.6781C16.9377 21.9718 16.7691 22.1622 16.5897 22.2425C16.4107 22.3227 16.1569 22.3214 15.9829 22.0764L15.0766 20.7998C14.7785 20.3798 14.2813 20.1851 13.7785 20.2924C13.276 20.3998 12.9003 20.7808 12.7978 21.2866L12.4867 22.8232C12.427 23.1181 12.196 23.2232 11.9995 23.2232C11.8031 23.2232 11.5722 23.1181 11.5124 22.8234L11.2013 21.2867C11.0988 20.7809 10.7232 20.3999 10.2206 20.2925C10.1293 20.273 10.0379 20.2636 9.94807 20.2636C9.5438 20.2636 9.16649 20.4563 8.9225 20.8001L8.01621 22.0768C7.84222 22.3215 7.5886 22.3231 7.40941 22.2428C7.22998 22.1626 7.06143 21.9724 7.12623 21.6785L7.464 20.1474C7.57535 19.6437 7.38607 19.1419 6.9707 18.8384C6.55511 18.535 6.02193 18.5091 5.57938 18.7711L4.23461 19.5672C3.97691 19.7198 3.74414 19.6175 3.61286 19.471C3.48157 19.3243 3.40466 19.0815 3.58273 18.8399L4.51099 17.5792C4.8166 17.1643 4.84685 16.6287 4.59006 16.1817C4.33293 15.7345 3.85752 15.4928 3.3461 15.5516L1.79551 15.7291C1.49704 15.764 1.32725 15.5751 1.26676 15.3874C1.20604 15.1997 1.23414 14.9467 1.49444 14.7984L2.85291 14.026C3.30011 13.772 3.54444 13.2953 3.49064 12.7818C3.43694 12.2684 3.09917 11.8529 2.60926 11.6977L1.12086 11.226C0.835304 11.1355 0.755334 10.8936 0.77595 10.6974C0.796678 10.5012 0.924789 10.2813 1.2227 10.2526L2.77623 10.1022C3.28754 10.0529 3.70381 9.71717 3.86251 9.22615C4.0212 8.73512 3.88063 8.2178 3.49596 7.87565L2.32721 6.83634C2.10294 6.63727 2.12808 6.38356 2.22606 6.21282C2.32461 6.04186 2.53088 5.8939 2.81429 5.98882L4.29419 6.48645C4.78194 6.65036 5.2979 6.51366 5.64123 6.13019C5.98512 5.7465 6.06656 5.21666 5.8535 4.74669L5.20626 3.3197C5.082 3.04584 5.20739 2.82457 5.36609 2.70859C5.52478 2.59261 5.77319 2.54093 5.99396 2.74433L7.14458 3.80378C7.5237 4.15242 8.05042 4.2387 8.51948 4.0287C8.98865 3.81869 9.27727 3.36762 9.27285 2.85155L9.25926 1.28354C9.25654 0.982481 9.46088 0.831553 9.65311 0.790577C9.8451 0.749829 10.0927 0.804008 10.2122 1.0798L10.8347 2.51805C11.0393 2.99144 11.4857 3.28555 11.9994 3.28555C12.5131 3.28555 12.9593 2.99144 13.1642 2.51805L13.7866 1.0798C13.9063 0.803781 14.154 0.749715 14.3458 0.790577C14.5379 0.831553 14.7422 0.982481 14.7396 1.28343L14.726 2.85166C14.7214 3.36785 15.0102 3.81881 15.4794 4.02881C15.9486 4.23881 16.4752 4.15253 16.8543 3.8039L18.0047 2.74444C18.2258 2.54104 18.4741 2.59272 18.6328 2.7087C18.7915 2.82469 18.917 3.04596 18.7926 3.31981L18.1454 4.7468C17.9325 5.21666 18.0137 5.74684 18.3574 6.1303C18.7011 6.51377 19.2167 6.65036 19.7047 6.48657L21.1846 5.98894C21.4685 5.8939 21.6748 6.04221 21.7728 6.21294C21.8708 6.38367 21.8959 6.63715 21.6716 6.83645L20.5029 7.87576C20.118 8.2178 19.9777 8.73534 20.1364 9.22626C20.295 9.71717 20.7111 10.0531 21.2226 10.1023L22.7762 10.2527C23.0741 10.2815 23.2023 10.5014 23.2229 10.6975C23.2436 10.8938 23.1638 11.1356 22.878 11.2261L21.3896 11.6978C20.8996 11.8532 20.5618 12.2685 20.5082 12.7819C20.4548 13.2951 20.6993 13.7717 21.1462 14.0259Z" fill="black"/>
<path d="M11.8063 3.88642C7.32925 3.88642 3.68698 7.54636 3.68698 12.0452C3.68698 16.544 7.32925 20.2039 11.8063 20.2039C16.2834 20.2039 19.9257 16.544 19.9257 12.0452C19.9257 7.54648 16.2833 3.88642 11.8063 3.88642ZM11.8063 19.427C7.75572 19.427 4.46029 16.1154 4.46029 12.0453C4.46029 7.97513 7.75584 4.66359 11.8063 4.66359C15.857 4.66359 19.1524 7.97513 19.1524 12.0453C19.1524 16.1154 15.8569 19.427 11.8063 19.427Z" fill="black"/>
<path d="M11.8063 5.05195C7.96878 5.05195 4.84688 8.189 4.84688 12.0452C4.84688 15.9013 7.96878 19.0384 11.8063 19.0384C15.6439 19.0384 18.7658 15.9013 18.7658 12.0452C18.7658 8.189 15.6439 5.05195 11.8063 5.05195ZM11.8063 18.2614C8.39525 18.2614 5.62019 15.4729 5.62019 12.0453C5.62019 8.61765 8.39525 5.82913 11.8063 5.82913C15.2174 5.82913 17.9925 8.61765 17.9925 12.0453C17.9925 15.4729 15.2174 18.2614 11.8063 18.2614Z" fill="black"/>
<path d="M9.05787 10.396V12.1785C9.05787 12.304 9.06229 12.4789 9.07181 12.7032C9.08087 12.9273 9.08732 13.0575 9.09038 13.0932H9.07645L7.41588 10.396H6.74451V13.7983H7.2471V12.0297C7.2471 11.7908 7.23611 11.5269 7.21459 11.2383L7.20281 11.0874H7.22139L8.88649 13.7983H9.56499V10.396H9.05787Z" fill="black"/>
<path d="M12.3742 10.8661V10.396H10.4593V13.7981H12.3742V13.3258H11.0127V12.2578H12.2886V11.7923H11.0127V10.8661H12.3742Z" fill="black"/>
<path d="M16.5516 10.396L16.0699 12.3739C15.982 12.7167 15.9265 12.999 15.9035 13.2211C15.843 12.8533 15.7859 12.5771 15.732 12.3923L15.1668 10.396H14.6181L14.0668 12.3832C14.0391 12.4841 14.0082 12.6158 13.9741 12.7789C13.9403 12.9414 13.9145 13.0887 13.8976 13.2208C13.8655 12.9773 13.8111 12.6966 13.7356 12.3786L13.2516 10.3958H12.6867L13.1312 12.0943L13.5688 13.7979H14.171L14.7312 11.778C14.7546 11.7007 14.7832 11.5826 14.818 11.4245C14.8528 11.2664 14.8782 11.1378 14.8936 11.0383C14.9011 11.1035 14.9236 11.2194 14.9608 11.3863C14.998 11.5529 15.0285 11.6807 15.0535 11.7692L15.6278 13.7981H16.2299L17.1122 10.3959L16.5516 10.396Z" fill="black"/>
</svg>
