<svg width="240" height="40" viewBox="0 0 240 40" fill="none" xmlns="http://www.w3.org/2000/svg">
<path d="M10.9528 38.4078C10.1779 38.9467 9.30614 39.2162 8.33752 39.2162C7.38381 39.2162 6.52696 38.9549 5.76697 38.4323C5.00699 38.9549 4.29915 39.2162 3.64348 39.2162C3.0027 39.2162 2.47369 39.1508 2.05644 39.0202C1.63919 38.9059 1.2741 38.7426 0.961162 38.5303C0.320387 38.1057 0 37.575 0 36.9381C0 36.6116 0.0819596 36.3258 0.245879 36.0808C0.573717 36.3584 0.990966 36.4972 1.49763 36.4972C2.82388 36.4972 3.74034 35.8767 4.247 34.6356V22.6577C4.247 21.9065 4.10543 21.3513 3.8223 20.992C3.37524 20.3878 2.6078 19.7918 1.51998 19.2039C2.5333 18.6977 3.18897 18.2486 3.48701 17.8567C3.99367 17.2198 4.247 16.5013 4.247 15.7012V5.36436C3.74034 4.10696 2.82388 3.47826 1.49763 3.47826C0.990966 3.47826 0.573717 3.61706 0.245879 3.89467C0.0819596 3.64972 0 3.37212 0 3.06185C0 2.73525 0.0819596 2.43315 0.245879 2.15554C0.4247 1.87793 0.663128 1.64115 0.961162 1.44519C1.64664 0.987957 2.42898 0.759339 3.30819 0.759339C4.20229 0.759339 5.02189 1.02878 5.76697 1.56767C6.54186 1.02878 7.39872 0.759339 8.33752 0.759339C9.29124 0.759339 10.1481 1.02062 10.9081 1.54317C12.3833 0.857318 14.0449 0.514391 15.8927 0.514391C17.7554 0.514391 19.3648 0.751174 20.7209 1.22474C22.0769 1.69831 23.2989 2.35967 24.3867 3.20882C26.6518 4.97244 28.1494 7.29945 28.8796 10.1898C29.1776 11.3166 29.8854 12.2392 31.0031 12.9577C29.8556 13.6599 29.0882 14.7214 28.7008 16.1421C28.3133 17.5628 27.6651 18.8855 26.7561 20.1102C25.862 21.3186 24.8338 22.3311 23.6714 23.1476C21.302 24.8132 18.7836 25.646 16.1162 25.646C14.9539 25.646 13.7394 25.4828 12.4728 25.1562V34.5132C12.8751 35.4603 13.7022 36.0808 14.9539 36.3748C15.2817 36.4564 15.6468 36.4972 16.0492 36.4972C16.4515 36.4972 16.8166 36.3584 17.1445 36.0808C17.3084 36.3258 17.3903 36.6116 17.3903 36.9381C17.3903 37.2484 17.2786 37.5424 17.055 37.82C16.8464 38.0976 16.5633 38.3344 16.2056 38.5303C15.4159 38.9875 14.5516 39.2162 13.6127 39.2162C12.6739 39.2162 11.7873 38.9467 10.9528 38.4078ZM12.4728 18.763C12.4728 19.8734 12.8453 20.7634 13.5904 21.4329C14.2759 22.0535 15.1551 22.3637 16.228 22.3637C17.8672 22.3637 19.0519 21.6779 19.7821 20.3062C20.0354 19.8326 20.1621 19.2529 20.1621 18.5671V7.49541C20.1621 6.31966 19.7523 5.39702 18.9327 4.7275C18.1876 4.10696 17.4425 3.79669 16.6974 3.79669C15.9672 3.79669 15.3637 3.87834 14.8868 4.04164C14.4249 4.18861 14.0151 4.41723 13.6574 4.7275C12.8677 5.41335 12.4728 6.36865 12.4728 7.59339V18.763ZM21.615 21.286C21.9577 21.2207 22.3079 20.7634 22.6656 19.9143C23.0381 19.0651 23.3138 18.069 23.4926 16.9259C23.6863 15.7665 23.9247 14.9173 24.2079 14.3784C24.491 13.8232 24.9455 13.4313 25.5714 13.2027C24.5432 12.8271 23.8949 11.831 23.6267 10.2143C23.3585 8.58134 23.0381 7.3811 22.6656 6.61359C22.3079 5.84609 21.9577 5.42968 21.615 5.36436C22.1663 6.71974 22.442 9.33252 22.442 13.2027C22.442 15.7828 22.3228 17.7261 22.0844 19.0325C21.846 20.3388 21.6895 21.09 21.615 21.286ZM6.39285 32.2351C7.13793 31.9249 7.54773 30.8553 7.62224 29.0263C7.71165 27.1974 7.75636 24.6663 7.75636 21.4329C7.75636 18.1996 7.74891 16.0523 7.734 14.9908C7.734 13.913 7.72655 13.0476 7.71165 12.3944C7.66695 10.4674 7.49558 9.30802 7.19754 8.91611C6.91441 8.50786 6.64618 8.23842 6.39285 8.10778C6.39285 13.7906 6.30344 17.0239 6.12462 17.8077C5.91599 18.4609 5.40933 18.9263 4.60464 19.2039C5.49874 19.5468 6.0054 19.9633 6.12462 20.4532C6.30344 21.237 6.39285 24.1029 6.39285 29.0508V32.2351Z" fill="black"/>
<path d="M40.2124 39.2162C39.2288 39.2162 38.3571 38.9549 37.5971 38.4323C36.8371 38.9549 36.1293 39.2162 35.4736 39.2162C34.8328 39.2162 34.3038 39.1508 33.8866 39.0202C33.4693 38.9059 33.1042 38.7426 32.7913 38.5303C32.1505 38.1057 31.8301 37.575 31.8301 36.9381C31.8301 36.6116 31.9121 36.3258 32.076 36.0808C32.4038 36.3584 32.8211 36.4972 33.3277 36.4972C34.654 36.4972 35.5705 35.8767 36.0771 34.6356V22.6577C36.0771 21.9065 35.9356 21.3513 35.6524 20.992C35.2054 20.3878 34.4379 19.7918 33.3501 19.2039C34.3634 18.6977 35.0191 18.2486 35.3171 17.8567C35.8238 17.2198 36.0771 16.5013 36.0771 15.7012V5.36436C35.5705 4.10696 34.654 3.47826 33.3277 3.47826C32.8211 3.47826 32.4038 3.61706 32.076 3.89467C31.9121 3.64972 31.8301 3.37212 31.8301 3.06185C31.8301 2.73525 31.9121 2.43315 32.076 2.15554C32.2548 1.87793 32.4932 1.64115 32.7913 1.44519C33.4768 0.987957 34.2591 0.759339 35.1383 0.759339C36.0324 0.759339 36.852 1.02878 37.5971 1.56767C38.372 1.02878 39.2586 0.759339 40.2571 0.759339C41.2555 0.759339 42.1645 1.07777 42.9841 1.71464C44.5637 1.07777 46.3891 0.759339 48.4605 0.759339C49.9953 0.759339 51.3067 0.922637 52.3945 1.24923L54.3839 1.83711C54.6223 1.90243 54.8533 1.93509 55.0768 1.93509C55.4941 1.93509 55.7027 1.60849 55.7027 0.955297C55.7027 0.791998 55.6506 0.514391 55.5462 0.122474C55.9635 0.0408247 56.4925 0 57.1333 0C57.7741 0 58.318 0.236783 58.765 0.710349C59.2121 1.16759 59.4356 1.83711 59.4356 2.71892C59.4356 3.5844 59.294 4.22127 59.0109 4.62952C59.4132 5.28271 59.6144 6.08287 59.6144 7.03001C59.6144 7.96081 59.3238 8.74464 58.7427 9.38151C58.9215 9.8714 59.0109 10.3531 59.0109 10.8267C59.0109 11.2839 58.9364 11.7085 58.7874 12.1004C58.6533 12.476 58.4819 12.7944 58.2733 13.0557C57.856 13.5293 57.4313 13.7661 56.9992 13.7661C56.3733 13.7661 55.807 13.6191 55.3004 13.3252C55.4792 12.9333 55.5686 12.3535 55.5686 11.586C55.5686 9.78975 55.1588 8.21392 54.3392 6.85854C53.2216 4.99694 51.5451 4.06614 49.3099 4.06614C48.1773 4.06614 47.1491 4.36824 46.2252 4.97244C45.3162 5.57665 44.6754 6.44213 44.3029 7.56889V17.0484C44.8244 17.4076 45.3087 17.5873 45.7558 17.5873C46.2178 17.5873 46.5605 17.5791 46.784 17.5628C47.0224 17.5464 47.2609 17.5138 47.4993 17.4648C48.1103 17.3668 48.5797 17.2362 48.9075 17.0729C49.5334 16.7463 49.8463 15.9461 49.8463 14.6724C49.8463 13.9539 49.6899 13.3987 49.3769 13.0067C49.675 12.7781 50.0475 12.6638 50.4946 12.6638C51.493 12.6638 52.2157 13.1047 52.6628 13.9865C52.8267 14.2968 52.9086 14.6397 52.9086 15.0153C52.9086 15.3909 52.8192 15.8563 52.6404 16.4115C53.2514 17.179 53.5569 18.0935 53.5569 19.1549C53.5569 20.2 53.2514 21.1063 52.6404 21.8739C52.8192 22.4291 52.9086 22.9353 52.9086 23.3925C52.9086 23.8334 52.8267 24.258 52.6628 24.6663C52.4988 25.0745 52.2977 25.4011 52.0592 25.646C51.5973 26.1033 51.0757 26.3319 50.4946 26.3319C50.0773 26.3319 49.7048 26.2013 49.3769 25.94C49.6899 25.3684 49.8463 24.6989 49.8463 23.9314C49.8463 22.4127 49.4663 21.4738 48.7063 21.1145C48.0358 20.8206 47.2683 20.6736 46.404 20.6736C45.5397 20.6736 44.8393 20.8451 44.3029 21.188V33.4354C45.1672 35.101 46.8362 35.9339 49.3099 35.9339C52.1114 35.9339 54.0188 34.9867 55.0321 33.0925C56.2094 30.9206 56.798 28.5936 56.798 26.1115C56.798 25.3929 56.7384 24.8377 56.6192 24.4458C56.9917 24.0376 57.3792 23.8334 57.7815 23.8334C58.1839 23.8334 58.4893 23.8988 58.698 24.0294C58.9066 24.1437 59.0929 24.2907 59.2568 24.4703C59.6144 24.9112 59.7932 25.3603 59.7932 25.8175L59.6591 27.0178C59.6591 27.328 59.7336 27.5811 59.8827 27.7771C60.1807 28.12 60.3297 28.4466 60.3297 28.7569C60.3297 29.0508 60.2403 29.4101 60.0615 29.8347C60.4042 30.0469 60.7097 30.3654 60.9779 30.79C61.2611 31.1982 61.4026 31.6228 61.4026 32.0637C61.4026 32.9945 61.045 33.8273 60.3297 34.5622C60.6426 35.0521 60.7991 35.7624 60.7991 36.6932C60.7991 37.6077 60.5532 38.3833 60.0615 39.0202C59.5846 39.6734 58.9587 40 58.1839 40C57.7666 40 57.3345 39.951 56.8874 39.853C56.947 39.4938 56.9768 39.1345 56.9768 38.7753C56.9768 38.0241 56.6639 37.6485 56.038 37.6485C55.3376 37.6485 54.6372 37.8036 53.9369 38.1139C52.2828 38.8487 50.3977 39.2162 48.2816 39.2162C46.1805 39.2162 44.3923 38.9141 42.917 38.3099C42.1421 38.9141 41.2406 39.2162 40.2124 39.2162ZM38.223 32.2351C38.9681 31.9249 39.3779 30.8553 39.4524 29.0263C39.5418 27.1974 39.5865 24.6663 39.5865 21.4329C39.5865 18.1996 39.579 16.0523 39.5641 14.9908C39.5641 13.913 39.5567 13.0476 39.5418 12.3944C39.4971 10.4674 39.3257 9.30802 39.0277 8.91611C38.7445 8.50786 38.4763 8.23842 38.223 8.10778C38.223 13.7906 38.1336 17.0239 37.9547 17.8077C37.7461 18.4609 37.2395 18.9263 36.4348 19.2039C37.3289 19.5468 37.8355 19.9633 37.9547 20.4532C38.1336 21.237 38.223 24.1029 38.223 29.0508V32.2351ZM43.8558 31.9902C43.8558 32.0392 43.8633 32.08 43.8782 32.1127L43.8558 31.9902Z" fill="black"/>
<path d="M75.0154 38.4323C74.2554 38.9549 73.3911 39.2162 72.4225 39.2162C71.4538 39.2162 70.5896 38.9549 69.8296 38.4323C69.0696 38.9549 68.3617 39.2162 67.7061 39.2162C67.0653 39.2162 66.5363 39.1508 66.119 39.0202C65.7018 38.9059 65.3367 38.7426 65.0238 38.5303C64.383 38.1057 64.0626 37.575 64.0626 36.9381C64.0626 36.6116 64.1445 36.3258 64.3085 36.0808C64.6363 36.3584 65.0536 36.4972 65.5602 36.4972C66.8865 36.4972 67.8029 35.8767 68.3096 34.6356V22.6577C68.3096 21.9065 68.168 21.3513 67.8849 20.992C67.4378 20.3878 66.6704 19.7918 65.5826 19.2039C66.5959 18.6977 67.2516 18.2486 67.5496 17.8567C68.0563 17.2198 68.3096 16.5013 68.3096 15.7012V5.36436C67.8029 4.10696 66.8865 3.47826 65.5602 3.47826C65.0536 3.47826 64.6363 3.61706 64.3085 3.89467C64.1445 3.64972 64.0626 3.37212 64.0626 3.06185C64.0626 2.73525 64.1445 2.43315 64.3085 2.15554C64.4873 1.87793 64.7257 1.64115 65.0238 1.44519C65.7092 0.987957 66.4916 0.759339 67.3708 0.759339C68.2649 0.759339 69.0845 1.02878 69.8296 1.56767C70.6045 1.02878 71.4688 0.759339 72.4225 0.759339C73.3762 0.759339 74.2405 1.02878 75.0154 1.56767C76.6993 0.865483 78.562 0.514391 80.6035 0.514391C82.66 0.514391 84.3811 0.718514 85.767 1.12676C87.1528 1.53501 88.345 2.11472 89.3434 2.86589C91.3551 4.38457 92.6069 6.49929 93.0986 9.21004C93.2924 10.4185 94.0002 11.3329 95.2221 11.9535C94.0598 12.672 93.2998 13.8151 92.9422 15.3827C92.212 18.616 90.3865 20.6328 87.4658 21.4329C88.9708 21.8739 90.2002 22.7802 91.154 24.1519C92.1375 25.5726 92.6292 27.2464 92.6292 29.1733V31.6228C92.6292 33.9743 93.3222 35.493 94.708 36.1788C95.1253 36.3911 95.5798 36.4972 96.0715 36.4972C96.5633 36.4972 96.9731 36.3584 97.3009 36.0808C97.4648 36.3258 97.5468 36.6116 97.5468 36.9381C97.5468 37.2484 97.4723 37.5424 97.3233 37.82C97.1743 38.0976 96.9731 38.3344 96.7198 38.5303C96.1833 38.9875 95.5574 39.2162 94.8421 39.2162C94.1269 39.2162 93.4265 39.0039 92.741 38.5793C91.4892 39.3305 90.3195 39.404 89.2316 38.7998C88.8144 39.0774 88.3748 39.2162 87.9128 39.2162C87.4509 39.2162 87.0038 39.1019 86.5717 38.8732C86.1544 38.6446 85.7819 38.269 85.454 37.7465C84.7537 36.6197 84.4035 34.8888 84.4035 32.5536V30.741C84.4035 26.9688 83.42 24.5193 81.4529 23.3925C80.7972 23.0169 80.0298 22.8291 79.1506 22.8291H76.5353V34.7581C76.9377 35.9175 77.7051 36.4972 78.8377 36.4972C79.3443 36.4972 79.7616 36.3584 80.0894 36.0808C80.2533 36.3258 80.3353 36.685 80.3353 37.1586C80.3353 37.6322 80.0969 38.0976 79.62 38.5548C79.1581 38.9957 78.4577 39.2162 77.5189 39.2162C76.5801 39.2162 75.7456 38.9549 75.0154 38.4323ZM80.827 3.7722C77.9659 3.7722 76.5353 4.98877 76.5353 7.42192V17.4403C76.5353 18.2894 76.8408 18.861 77.4518 19.1549C78.033 19.4325 78.8898 19.5713 80.0224 19.5713C81.1698 19.5713 81.967 19.506 82.4141 19.3754C82.876 19.2284 83.2709 18.9835 83.5988 18.6405C84.2693 17.9384 84.6046 16.7626 84.6046 15.1133V7.96081C84.6046 5.91958 83.8298 4.61319 82.28 4.04164C81.818 3.86201 81.3337 3.7722 80.827 3.7722ZM86.1023 5.33987C86.5642 6.48296 86.7952 8.3119 86.7952 10.8267C86.7952 15.1541 86.6089 17.7424 86.2364 18.5915C87.056 18.4119 87.6446 17.2117 88.0022 14.9908L88.1811 13.9865C88.345 12.9251 88.8218 12.2474 89.6116 11.9535C89.0305 11.7412 88.6579 11.4881 88.494 11.1941C88.3152 10.8512 88.1513 10.2715 88.0022 9.45499C87.8681 8.62217 87.7266 7.95264 87.5775 7.44642C87.4285 6.94019 87.272 6.54011 87.1081 6.24617C86.825 5.72362 86.4897 5.42151 86.1023 5.33987ZM70.4554 32.2351C71.2005 31.9249 71.6103 30.8553 71.6848 29.0263C71.7742 27.1974 71.8189 24.6663 71.8189 21.4329C71.8189 18.1996 71.8115 16.0523 71.7966 14.9908C71.7966 13.913 71.7891 13.0476 71.7742 12.3944C71.7295 10.4674 71.5582 9.30802 71.2601 8.91611C70.977 8.50786 70.7088 8.23842 70.4554 8.10778C70.4554 13.7906 70.366 17.0239 70.1872 17.8077C69.9786 18.4609 69.4719 18.9263 68.6672 19.2039C69.5613 19.5468 70.068 19.9633 70.1872 20.4532C70.366 21.237 70.4554 24.1029 70.4554 29.0508V32.2351ZM85.8787 25.5236C86.4748 26.2584 86.7728 27.1566 86.7728 28.218V31.4513C86.7728 34.1621 87.2646 35.6073 88.2481 35.7869C88.5163 35.8359 88.7771 35.8277 89.0305 35.7624C88.494 34.8479 88.2258 33.8845 88.2258 32.872V29.4427C88.2258 28.1527 88.0618 27.2382 87.734 26.6993C87.1677 25.7849 86.5493 25.3929 85.8787 25.5236Z" fill="black"/>
<path d="M110.042 38.4568C109.267 38.9631 108.373 39.2162 107.36 39.2162C106.361 39.2162 105.482 38.9549 104.722 38.4323C103.962 38.9549 103.254 39.2162 102.598 39.2162C101.958 39.2162 101.429 39.1508 101.011 39.0202C100.594 38.9059 100.237 38.7426 99.9385 38.5303C99.2829 38.1057 98.955 37.575 98.955 36.9381C98.955 36.6116 99.037 36.3258 99.2009 36.0808C99.5287 36.3584 99.946 36.4972 100.453 36.4972C101.779 36.4972 102.695 35.8767 103.202 34.6356V22.6332C103.202 21.8983 103.068 21.3513 102.8 20.992C102.338 20.3878 101.563 19.7918 100.475 19.2039C101.488 18.6977 102.144 18.2486 102.442 17.8567C102.949 17.2198 103.202 16.5013 103.202 15.7012V5.36436C102.695 4.10696 101.779 3.47826 100.453 3.47826C99.8417 3.47826 99.3723 3.61706 99.0444 3.89467C98.8805 3.64972 98.7986 3.37212 98.7986 3.06185C98.7986 2.73525 98.888 2.43315 99.0668 2.15554C99.2605 1.87793 99.5213 1.64115 99.8491 1.44519C100.55 0.987957 101.347 0.759339 102.241 0.759339C103.15 0.759339 103.977 1.02878 104.722 1.56767C105.497 1.02878 106.384 0.759339 107.382 0.759339C108.395 0.759339 109.312 1.08594 110.131 1.73913C111.785 1.08594 113.752 0.759339 116.032 0.759339C117.478 0.759339 118.715 0.922637 119.743 1.24923L121.665 1.83711C121.904 1.90243 122.135 1.93509 122.358 1.93509C122.775 1.93509 122.984 1.60849 122.984 0.955297C122.984 0.791998 122.932 0.514391 122.828 0.122474C123.245 0.0408247 123.774 0 124.415 0C125.055 0 125.599 0.236783 126.046 0.710349C126.493 1.16759 126.717 1.85344 126.717 2.76791C126.717 3.66605 126.553 4.36007 126.225 4.84997C126.672 5.60114 126.896 6.48296 126.896 7.49541C126.896 8.50786 126.598 9.38151 126.002 10.1164C126.195 10.6389 126.292 11.1696 126.292 11.7085C126.292 12.2311 126.225 12.6965 126.091 13.1047C125.957 13.513 125.786 13.8559 125.577 14.1335C125.16 14.6887 124.661 14.9663 124.079 14.9663C123.558 14.9663 123.059 14.8275 122.582 14.5499C122.775 14.109 122.872 13.5864 122.872 12.9822C122.872 12.3617 122.843 11.8473 122.783 11.4391C122.738 11.0145 122.664 10.5736 122.559 10.1164C122.351 9.08757 122.001 8.07512 121.509 7.079C120.525 5.07042 118.983 4.06614 116.882 4.06614C114.274 4.06614 112.456 4.80914 111.428 6.29516V17.6118C111.905 17.9057 112.344 18.0527 112.747 18.0527C113.149 18.0527 113.477 18.0445 113.73 18.0282C113.983 18.0118 114.237 17.9873 114.49 17.9547C115.131 17.873 115.615 17.7424 115.943 17.5628C116.584 17.2362 116.904 16.5013 116.904 15.3582C116.904 14.1988 116.748 13.3333 116.435 12.7618C116.673 12.5332 117.046 12.4189 117.552 12.4189C118.551 12.4189 119.274 12.9822 119.721 14.109C119.885 14.5172 119.966 14.95 119.966 15.4072C119.966 15.8481 119.877 16.3462 119.698 16.9014C120.309 17.6689 120.615 18.5834 120.615 19.6448C120.615 20.6899 120.309 21.5962 119.698 22.3637C119.877 22.919 119.966 23.4252 119.966 23.8824C119.966 24.3233 119.885 24.7479 119.721 25.1562C119.557 25.5644 119.356 25.891 119.117 26.1359C118.655 26.5932 118.134 26.8218 117.552 26.8218C117.135 26.8218 116.763 26.6912 116.435 26.4299C116.748 25.8583 116.904 25.1888 116.904 24.4213C116.904 22.9026 116.524 21.9637 115.764 21.6044C115.123 21.3268 114.356 21.188 113.462 21.188C112.583 21.188 111.905 21.335 111.428 21.6289V34.5622C111.994 35.8522 113.06 36.4972 114.624 36.4972C115.131 36.4972 115.548 36.3584 115.876 36.0808C116.04 36.3258 116.122 36.6116 116.122 36.9381C116.122 37.2484 116.032 37.5424 115.854 37.82C115.69 38.0976 115.451 38.3344 115.138 38.5303C114.468 38.9875 113.663 39.2162 112.724 39.2162C111.8 39.2162 110.906 38.9631 110.042 38.4568ZM105.348 32.2351C106.093 31.9249 106.51 30.8553 106.6 29.0263C106.674 27.1974 106.711 24.6663 106.711 21.4329C106.711 18.1996 106.704 16.0523 106.689 14.9908C106.689 13.913 106.682 13.0476 106.667 12.3944C106.622 10.4674 106.451 9.30802 106.153 8.91611C105.869 8.50786 105.601 8.23842 105.348 8.10778C105.348 13.7906 105.258 17.0239 105.08 17.8077C104.871 18.4609 104.364 18.9263 103.56 19.2039C104.454 19.5468 104.96 19.9633 105.08 20.4532C105.258 21.237 105.348 24.1029 105.348 29.0508V32.2351Z" fill="black"/>
<path d="M156.915 30.7655C157.184 31.484 157.727 32.1698 158.547 32.823C158.026 33.0516 157.37 33.5905 156.58 34.4397C155.805 35.2888 154.933 36.0482 153.965 36.7177C152.996 37.3872 152.035 37.9261 151.081 38.3344C149.353 39.0855 147.483 39.4611 145.471 39.4611C143.474 39.4611 141.656 39.1998 140.017 38.6773C138.392 38.1547 137.044 37.4444 135.971 36.5462C133.87 34.7663 132.819 32.3984 132.819 29.4427V22.6577C132.819 21.9065 132.678 21.3513 132.395 20.992C131.947 20.3878 131.18 19.7918 130.092 19.2039C131.106 18.6977 131.761 18.2486 132.059 17.8567C132.566 17.2198 132.819 16.5013 132.819 15.7012V5.36436C132.313 4.10696 131.396 3.47826 130.07 3.47826C129.563 3.47826 129.146 3.61706 128.818 3.89467C128.654 3.64972 128.572 3.37212 128.572 3.06185C128.572 2.73525 128.654 2.43315 128.818 2.15554C128.997 1.87793 129.235 1.64115 129.533 1.44519C130.219 0.987957 131.001 0.759339 131.88 0.759339C132.775 0.759339 133.594 1.02878 134.339 1.56767C135.114 1.02878 135.978 0.759339 136.932 0.759339C137.886 0.759339 138.75 1.02878 139.525 1.56767C140.27 1.02878 140.97 0.759339 141.626 0.759339C142.282 0.759339 142.818 0.824658 143.236 0.955297C143.653 1.06961 144.018 1.2329 144.331 1.44519C144.972 1.86977 145.292 2.40049 145.292 3.03735C145.292 3.36395 145.21 3.64972 145.046 3.89467C144.718 3.61706 144.301 3.47826 143.794 3.47826C142.468 3.47826 141.552 4.10696 141.045 5.36436V15.7012C141.045 16.5013 141.201 17.0974 141.514 17.4893C142.006 18.1261 142.759 18.6977 143.772 19.2039C142.684 19.7918 141.991 20.2735 141.693 20.6491C141.261 21.237 141.045 21.9065 141.045 22.6577V29.4917C141.045 31.4676 141.723 33.0925 143.079 34.3662C144.331 35.5256 145.754 36.1053 147.348 36.1053C149.017 36.1053 150.5 35.5419 151.797 34.4152C153.123 33.2721 153.786 31.8841 153.786 30.2511V22.4372C153.786 21.7187 153.644 21.188 153.361 20.8451C152.929 20.3388 152.162 19.7918 151.059 19.2039C152.087 18.6487 152.75 18.1996 153.048 17.8567C153.54 17.2852 153.786 16.6483 153.786 15.9461V5.04593C153.145 4.00082 152.363 3.47826 151.439 3.47826C150.515 3.47826 149.837 3.61706 149.405 3.89467C149.241 3.60073 149.159 3.20065 149.159 2.69443C149.159 2.17187 149.39 1.7228 149.852 1.34721C150.314 0.955297 150.917 0.759339 151.662 0.759339C152.408 0.759339 153.071 0.971627 153.652 1.3962C154.173 0.971627 154.77 0.759339 155.44 0.759339C156.126 0.759339 156.729 0.979792 157.251 1.4207C157.832 0.979792 158.473 0.759339 159.173 0.759339C159.873 0.759339 160.432 0.963462 160.849 1.37171C161.282 1.76363 161.498 2.22086 161.498 2.74342C161.498 3.26597 161.423 3.64972 161.274 3.89467C160.842 3.61706 160.149 3.47826 159.195 3.47826C158.257 3.47826 157.497 4.00082 156.915 5.04593V15.9461C156.915 16.6646 157.057 17.1872 157.34 17.5138C157.787 18.02 158.629 18.5834 159.866 19.2039C158.555 19.9061 157.772 20.396 157.519 20.6736C157.117 21.1145 156.915 21.7024 156.915 22.4372V30.7655ZM136.127 32.2351C136.262 31.3533 136.329 28.5283 136.329 23.76C136.329 18.9753 136.321 16.0523 136.306 14.9908C136.306 13.913 136.299 13.0476 136.284 12.3944C136.239 10.4674 136.068 9.30802 135.77 8.91611C135.487 8.50786 135.218 8.23842 134.965 8.10778C134.965 13.7906 134.876 17.0239 134.697 17.8077C134.488 18.4609 133.982 18.9263 133.177 19.2039C134.071 19.5468 134.578 19.9633 134.697 20.4532C134.876 21.237 134.965 22.9271 134.965 25.5236C134.965 28.12 134.995 29.655 135.054 30.1286C135.129 30.6022 135.226 30.9859 135.345 31.2799C135.539 31.8024 135.8 32.1208 136.127 32.2351Z" fill="black"/>
<path d="M167.645 38.5548C167.093 38.9957 166.46 39.2162 165.745 39.2162C165.044 39.2162 164.478 39.0202 164.046 38.6283C163.629 38.22 163.42 37.7546 163.42 37.2321C163.42 36.7095 163.494 36.3258 163.643 36.0808C164.076 36.3584 164.761 36.4972 165.7 36.4972C166.072 36.4972 166.482 36.2931 166.929 35.8849C167.376 35.4603 167.734 34.8806 168.002 34.1457V22.6577C168.002 21.8902 167.853 21.3186 167.555 20.943C167.108 20.3552 166.348 19.7755 165.275 19.2039C166.363 18.6324 167.049 18.1588 167.332 17.7832C167.779 17.1627 168.002 16.4687 168.002 15.7012L168.025 5.02143C167.667 3.99265 166.877 3.47826 165.655 3.47826C165.029 3.47826 164.567 3.61706 164.269 3.89467C164.12 3.68238 164.046 3.40478 164.046 3.06185C164.046 2.71892 164.113 2.40865 164.247 2.13105C164.381 1.85344 164.567 1.60849 164.806 1.3962C165.312 0.971627 165.991 0.759339 166.84 0.759339C167.689 0.759339 168.39 1.02878 168.941 1.56767C169.433 1.02878 170.007 0.759339 170.662 0.759339C171.318 0.759339 171.877 1.06144 172.339 1.66565C172.92 1.06144 173.434 0.759339 173.881 0.759339C174.328 0.759339 174.671 0.800163 174.909 0.881813C175.148 0.963462 175.386 1.1186 175.624 1.34721C176.101 1.75546 176.601 2.58012 177.122 3.82119L185.683 23.2945L192.747 4.2131L193.372 2.62094C193.745 1.7228 194.095 1.19208 194.423 1.02878C194.751 0.849153 195.131 0.759339 195.563 0.759339C196.01 0.759339 196.465 0.938967 196.927 1.29822C197.493 0.938967 198.23 0.759339 199.139 0.759339C200.063 0.759339 200.861 1.02878 201.531 1.56767C202.127 1.02878 202.746 0.759339 203.386 0.759339C204.042 0.759339 204.549 0.816493 204.906 0.930802C205.279 1.04511 205.599 1.20024 205.868 1.3962C206.434 1.83711 206.717 2.38416 206.717 3.03735C206.717 3.36395 206.635 3.64972 206.471 3.89467C206.143 3.61706 205.726 3.47826 205.219 3.47826C204.087 3.47826 203.319 4.05797 202.917 5.21739V15.7012C202.917 16.5013 203.073 17.0974 203.386 17.4893C203.878 18.1261 204.631 18.6977 205.644 19.2039C204.556 19.7918 203.863 20.2735 203.565 20.6491C203.133 21.237 202.917 21.9065 202.917 22.6577V34.6356C203.424 35.8767 204.34 36.4972 205.666 36.4972C206.173 36.4972 206.59 36.3584 206.918 36.0808C207.082 36.3258 207.164 36.6116 207.164 36.9381C207.164 37.2484 207.075 37.5424 206.896 37.82C206.732 38.0976 206.501 38.3344 206.203 38.5303C205.517 38.9875 204.735 39.2162 203.856 39.2162C202.977 39.2162 202.157 38.9549 201.397 38.4323C200.697 38.9549 199.899 39.2162 199.005 39.2162C198.052 39.2162 197.21 38.9549 196.479 38.4323C195.719 38.9549 195.012 39.2162 194.356 39.2162C193.715 39.2162 193.186 39.1508 192.769 39.0202C192.352 38.9059 191.987 38.7426 191.674 38.5303C191.033 38.1057 190.712 37.575 190.712 36.9381C190.712 36.6116 190.794 36.3258 190.958 36.0808C191.286 36.3584 191.703 36.4972 192.21 36.4972C193.536 36.4972 194.453 35.8767 194.959 34.6356V7.86283L186.242 31.5248L185.281 33.9253C184.819 35.0684 184.491 35.7134 184.297 35.8604C184.118 36.0073 183.969 36.0808 183.85 36.0808C183.478 36.0808 183.217 36.04 183.068 35.9584L171.132 10.1653V34.1213C171.415 34.8724 171.802 35.4603 172.294 35.8849C172.786 36.2931 173.337 36.4972 173.948 36.4972C174.559 36.4972 175.081 36.3584 175.513 36.0808C175.677 36.3748 175.759 36.783 175.759 37.3056C175.759 37.8118 175.528 38.2609 175.066 38.6528C174.604 39.0284 174.008 39.2162 173.277 39.2162C172.547 39.2162 171.877 39.012 171.266 38.6038C170.729 39.012 170.111 39.2162 169.41 39.2162C168.725 39.2162 168.136 38.9957 167.645 38.5548ZM174.283 8.08328C174.134 8.32823 174.06 8.67932 174.06 9.13656C174.06 10.4593 174.566 12.2147 175.58 14.4029L183.716 32.2107C183.82 32.0637 183.873 31.7534 183.873 31.2799C183.873 29.8592 183.254 27.7771 182.017 25.0337L174.283 8.08328ZM197.105 32.2351C197.85 31.9249 198.26 30.8553 198.335 29.0263C198.424 27.1974 198.469 24.6663 198.469 21.4329C198.469 18.1996 198.461 16.0523 198.447 14.9908C198.447 13.913 198.439 13.0476 198.424 12.3944C198.379 10.4674 198.208 9.30802 197.91 8.91611C197.627 8.50786 197.359 8.23842 197.105 8.10778V32.2351ZM170.819 32.5536C170.819 32.6842 170.826 32.7822 170.841 32.8475L170.819 32.5536ZM168.315 32.5536C168.3 32.6189 168.293 32.7169 168.293 32.8475L168.315 32.5536Z" fill="black"/>
<path d="M218.81 39.2162C217.826 39.2162 216.954 38.9549 216.194 38.4323C215.434 38.9549 214.727 39.2162 214.071 39.2162C213.43 39.2162 212.901 39.1508 212.484 39.0202C212.067 38.9059 211.702 38.7426 211.389 38.5303C210.748 38.1057 210.428 37.575 210.428 36.9381C210.428 36.6116 210.509 36.3258 210.673 36.0808C211.001 36.3584 211.418 36.4972 211.925 36.4972C213.251 36.4972 214.168 35.8767 214.674 34.6356V22.6577C214.674 21.9065 214.533 21.3513 214.25 20.992C213.803 20.3878 213.035 19.7918 211.947 19.2039C212.961 18.6977 213.616 18.2486 213.915 17.8567C214.421 17.2198 214.674 16.5013 214.674 15.7012V5.36436C214.168 4.10696 213.251 3.47826 211.925 3.47826C211.418 3.47826 211.001 3.61706 210.673 3.89467C210.509 3.64972 210.428 3.37212 210.428 3.06185C210.428 2.73525 210.509 2.43315 210.673 2.15554C210.852 1.87793 211.091 1.64115 211.389 1.44519C212.074 0.987957 212.856 0.759339 213.736 0.759339C214.63 0.759339 215.449 1.02878 216.194 1.56767C216.969 1.02878 217.856 0.759339 218.854 0.759339C219.853 0.759339 220.762 1.07777 221.581 1.71464C223.161 1.07777 224.986 0.759339 227.058 0.759339C228.593 0.759339 229.904 0.922637 230.992 1.24923L232.981 1.83711C233.22 1.90243 233.451 1.93509 233.674 1.93509C234.091 1.93509 234.3 1.60849 234.3 0.955297C234.3 0.791998 234.248 0.514391 234.144 0.122474C234.561 0.0408247 235.09 0 235.731 0C236.371 0 236.915 0.236783 237.362 0.710349C237.809 1.16759 238.033 1.83711 238.033 2.71892C238.033 3.5844 237.891 4.22127 237.608 4.62952C238.011 5.28271 238.212 6.08287 238.212 7.03001C238.212 7.96081 237.921 8.74464 237.34 9.38151C237.519 9.8714 237.608 10.3531 237.608 10.8267C237.608 11.2839 237.534 11.7085 237.385 12.1004C237.251 12.476 237.079 12.7944 236.871 13.0557C236.453 13.5293 236.029 13.7661 235.597 13.7661C234.971 13.7661 234.404 13.6191 233.898 13.3252C234.077 12.9333 234.166 12.3535 234.166 11.586C234.166 9.78975 233.756 8.21392 232.937 6.85854C231.819 4.99694 230.143 4.06614 227.907 4.06614C226.775 4.06614 225.746 4.36824 224.823 4.97244C223.914 5.57665 223.273 6.44213 222.9 7.56889V17.0484C223.422 17.4076 223.906 17.5873 224.353 17.5873C224.815 17.5873 225.158 17.5791 225.381 17.5628C225.62 17.5464 225.858 17.5138 226.097 17.4648C226.708 17.3668 227.177 17.2362 227.505 17.0729C228.131 16.7463 228.444 15.9461 228.444 14.6724C228.444 13.9539 228.287 13.3987 227.974 13.0067C228.272 12.7781 228.645 12.6638 229.092 12.6638C230.09 12.6638 230.813 13.1047 231.26 13.9865C231.424 14.2968 231.506 14.6397 231.506 15.0153C231.506 15.3909 231.417 15.8563 231.238 16.4115C231.849 17.179 232.154 18.0935 232.154 19.1549C232.154 20.2 231.849 21.1063 231.238 21.8739C231.417 22.4291 231.506 22.9353 231.506 23.3925C231.506 23.8334 231.424 24.258 231.26 24.6663C231.096 25.0745 230.895 25.4011 230.657 25.646C230.195 26.1033 229.673 26.3319 229.092 26.3319C228.675 26.3319 228.302 26.2013 227.974 25.94C228.287 25.3684 228.444 24.6989 228.444 23.9314C228.444 22.4127 228.064 21.4738 227.304 21.1145C226.633 20.8206 225.866 20.6736 225.001 20.6736C224.137 20.6736 223.437 20.8451 222.9 21.188V33.4354C223.765 35.101 225.434 35.9339 227.907 35.9339C230.709 35.9339 232.616 34.9867 233.63 33.0925C234.807 30.9206 235.395 28.5936 235.395 26.1115C235.395 25.3929 235.336 24.8377 235.217 24.4458C235.589 24.0376 235.977 23.8334 236.379 23.8334C236.781 23.8334 237.087 23.8988 237.295 24.0294C237.504 24.1437 237.69 24.2907 237.854 24.4703C238.212 24.9112 238.391 25.3603 238.391 25.8175L238.257 27.0178C238.257 27.328 238.331 27.5811 238.48 27.7771C238.778 28.12 238.927 28.4466 238.927 28.7569C238.927 29.0508 238.838 29.4101 238.659 29.8347C239.002 30.0469 239.307 30.3654 239.575 30.79C239.858 31.1982 240 31.6228 240 32.0637C240 32.9945 239.642 33.8273 238.927 34.5622C239.24 35.0521 239.396 35.7624 239.396 36.6932C239.396 37.6077 239.151 38.3833 238.659 39.0202C238.182 39.6734 237.556 40 236.781 40C236.364 40 235.932 39.951 235.485 39.853C235.544 39.4938 235.574 39.1345 235.574 38.7753C235.574 38.0241 235.261 37.6485 234.635 37.6485C233.935 37.6485 233.235 37.8036 232.534 38.1139C230.88 38.8487 228.995 39.2162 226.879 39.2162C224.778 39.2162 222.99 38.9141 221.514 38.3099C220.74 38.9141 219.838 39.2162 218.81 39.2162ZM216.82 32.2351C217.565 31.9249 217.975 30.8553 218.05 29.0263C218.139 27.1974 218.184 24.6663 218.184 21.4329C218.184 18.1996 218.176 16.0523 218.161 14.9908C218.161 13.913 218.154 13.0476 218.139 12.3944C218.094 10.4674 217.923 9.30802 217.625 8.91611C217.342 8.50786 217.074 8.23842 216.82 8.10778C216.82 13.7906 216.731 17.0239 216.552 17.8077C216.343 18.4609 215.837 18.9263 215.032 19.2039C215.926 19.5468 216.433 19.9633 216.552 20.4532C216.731 21.237 216.82 24.1029 216.82 29.0508V32.2351ZM222.453 31.9902C222.453 32.0392 222.461 32.08 222.476 32.1127L222.453 31.9902Z" fill="black"/>
</svg>
