<svg width="20" height="20" viewBox="0 0 20 20" fill="none" xmlns="http://www.w3.org/2000/svg">
<path d="M19.5615 17.4149L13.5716 11.3533C13.3768 11.1562 13.061 11.1562 12.8663 11.3533C12.6715 11.5505 12.6715 11.8701 12.8663 12.0671L18.8562 18.1286C18.9504 18.224 19.0023 18.3511 19.0023 18.4858C19.0023 18.6205 18.9504 18.7473 18.8559 18.8427C18.6678 19.0335 18.3391 19.0335 18.1506 18.8427L12.1428 12.7627C11.948 12.5655 11.6322 12.5655 11.4375 12.7627C11.2427 12.9598 11.2427 13.2794 11.4375 13.4764L17.4453 19.5563C17.7279 19.8425 18.1038 20 18.5035 20C18.9032 20 19.2792 19.8425 19.5616 19.5564C19.8444 19.2703 20 18.8899 20 18.4855C20 18.0812 19.8444 17.7009 19.5615 17.4149Z" fill="black"/>
<path fill-rule="evenodd" clip-rule="evenodd" d="M7.52895 14.0667C11.0474 14.0667 13.8996 11.1801 13.8996 7.61944C13.8996 4.05874 11.0474 1.17222 7.52895 1.17222C4.01054 1.17222 1.1583 4.05874 1.1583 7.61944C1.1583 11.1801 4.01054 14.0667 7.52895 14.0667ZM7.52895 15.2389C11.6871 15.2389 15.0579 11.8275 15.0579 7.61944C15.0579 3.41134 11.6871 0 7.52895 0C3.37083 0 0 3.41134 0 7.61944C0 11.8275 3.37083 15.2389 7.52895 15.2389Z" fill="black"/>
</svg>
