<svg width="25" height="24" viewBox="0 0 25 24" fill="none" xmlns="http://www.w3.org/2000/svg">
<path d="M12.9968 0C6.38005 0 0.996826 5.38322 0.996826 12C0.996826 18.6168 6.38005 24 12.9968 24C19.6136 24 24.9968 18.6168 24.9968 12C24.9968 5.38322 19.6136 0 12.9968 0ZM12.9968 23.1727C6.8361 23.1727 1.82412 18.1607 1.82412 12C1.82412 5.83927 6.8361 0.827291 12.9968 0.827291C19.1576 0.827291 24.1695 5.83927 24.1695 12C24.1695 18.1607 19.1576 23.1727 12.9968 23.1727Z" fill="black"/>
<path d="M24.957 11.1589C24.8327 9.36663 24.3227 7.6675 23.4414 6.10844L23.3247 5.90192H9.84901C8.10999 5.90192 6.69551 7.31663 6.69551 9.05565V11.5935H24.9874L24.957 11.1589ZM7.50851 10.7804V9.05565C7.50851 7.76493 8.55841 6.71504 9.84901 6.71504H22.8477C23.5303 7.98301 23.9531 9.34781 24.1076 10.7804H7.50851Z" fill="black"/>
<path d="M9.74446 7.52803C8.9598 7.52803 8.32153 8.16654 8.32153 8.95096C8.32153 9.73537 8.9598 10.3739 9.74446 10.3739C10.5291 10.3739 11.1674 9.73537 11.1674 8.95096C11.1674 8.16654 10.5291 7.52803 9.74446 7.52803ZM9.74446 9.56077C9.40823 9.56077 9.13465 9.28719 9.13465 8.95096C9.13465 8.61473 9.40823 8.34115 9.74446 8.34115C10.0807 8.34115 10.3543 8.61473 10.3543 8.95096C10.3543 9.28719 10.0807 9.56077 9.74446 9.56077Z" fill="black"/>
<path d="M12.9968 7.52803C12.2122 7.52803 11.5739 8.16654 11.5739 8.95096C11.5739 9.73537 12.2122 10.3739 12.9968 10.3739C13.7815 10.3739 14.4197 9.73537 14.4197 8.95096C14.4197 8.16654 13.7815 7.52803 12.9968 7.52803ZM12.9968 9.56077C12.6606 9.56077 12.387 9.28719 12.387 8.95096C12.387 8.61473 12.6606 8.34115 12.9968 8.34115C13.333 8.34115 13.6066 8.61473 13.6066 8.95096C13.6066 9.28719 13.333 9.56077 12.9968 9.56077Z" fill="black"/>
<path d="M16.2491 7.52113C15.4607 7.52113 14.8193 8.1625 14.8193 8.95096C14.8193 9.73942 15.4607 10.3808 16.2491 10.3808C17.0376 10.3808 17.679 9.73942 17.679 8.95096C17.6789 8.1625 17.0376 7.52113 16.2491 7.52113ZM16.2491 9.55386C15.9168 9.55386 15.6462 9.28349 15.6462 8.95096C15.6462 8.61842 15.9168 8.34806 16.2491 8.34806C16.5814 8.34806 16.852 8.61842 16.852 8.95096C16.852 9.28349 16.5814 9.55386 16.2491 9.55386Z" fill="black"/>
<path d="M24.957 11.1589L24.931 10.7804H6.69548V22.2057L6.89486 22.3239C8.73834 23.4158 10.8483 23.9929 12.9968 23.9929C19.6097 23.9929 24.9896 18.6127 24.9896 12C24.9897 11.7461 24.9792 11.4788 24.957 11.1589ZM12.9969 23.1799C11.0711 23.1799 9.17867 22.6826 7.5086 21.7397V11.5935H24.1678C24.1736 11.7376 24.1767 11.871 24.1767 12C24.1767 18.1645 19.1614 23.1799 12.9969 23.1799Z" fill="black"/>
<path d="M18.7224 14.6498C18.3669 13.8393 17.6388 13.3091 16.7753 13.2309C16.6934 13.2237 16.6103 13.2197 16.5265 13.2197C15.9935 13.2197 15.4726 13.3767 15.0296 13.6667C14.5867 13.3767 14.0657 13.2197 13.5328 13.2197C13.449 13.2197 13.3659 13.2235 13.2843 13.2309C12.4206 13.3088 11.6925 13.8393 11.337 14.6498C10.9676 15.4917 11.0823 16.4636 11.6364 17.1863L14.7068 21.1912C14.7838 21.2916 14.9029 21.3503 15.0293 21.3503C15.1558 21.3503 15.2749 21.2916 15.3525 21.1912L18.4229 17.1863C18.977 16.4637 19.0918 15.492 18.7224 14.6498ZM17.7772 16.6917L15.0294 20.2758L12.2816 16.6917C11.9077 16.2042 11.8311 15.5471 12.0814 14.9765C12.3161 14.4413 12.793 14.0915 13.3574 14.0407C13.415 14.0355 13.4733 14.0327 13.5324 14.0327C13.9832 14.0327 14.4219 14.1927 14.7679 14.4834C14.9191 14.6109 15.1398 14.6109 15.2911 14.4834C15.682 14.1549 16.2007 13.9941 16.7016 14.0407C17.2657 14.0916 17.7426 14.4414 17.9773 14.9765C18.2277 15.5469 18.1511 16.2042 17.7772 16.6917Z" fill="black"/>
</svg>
